<svg width="1440" height="800" viewBox="0 0 1440 800" fill="none" xmlns="http://www.w3.org/2000/svg">
<rect width="1440" height="800" fill="white"/>
<g clip-path="url(#clip0_103_129)">
<path fill-rule="evenodd" clip-rule="evenodd" d="M0 512L50 518C100 524 200 536 300 578C400 620 500 692 600 728C700 764 800 764 900 770C1000 776 1100 788 1150 794L1200 800H1150C1100 800 1000 800 900 800C800 800 700 800 600 800C500 800 400 800 300 800C200 800 100 800 50 800H0V512Z" fill="#9EBBFF"/>
<path opacity="0.8" fill-rule="evenodd" clip-rule="evenodd" d="M1440 368H1400C1360 368 1280 368 1200 390C1120 411 1040 454 960 454C880 454 800 411 720 447C640 483 560 598 480 656C400 714 320 714 240 699C160 685 80 656 40 642L0 627V800H40C80 800 160 800 240 800C320 800 400 800 480 800C560 800 640 800 720 800C800 800 880 800 960 800C1040 800 1120 800 1200 800C1280 800 1360 800 1400 800H1440V368Z" fill="#ECF2FF"/>
<g clip-path="url(#clip1_103_129)">
<path d="M1203 770C1283.1 770 1348.03 766.219 1348.03 761.554C1348.03 756.89 1283.1 753.109 1203 753.109C1122.9 753.109 1057.97 756.89 1057.97 761.554C1057.97 766.219 1122.9 770 1203 770Z" fill="#F5F5F5"/>
<path opacity="0.1" d="M1118.7 702.591C1118.79 701.919 1119.14 701.307 1119.66 700.88C1120.19 700.454 1120.87 700.247 1121.54 700.3C1127.95 700.203 1133.94 704.717 1139.49 709.559C1140.73 710.626 1142.07 711.731 1143.45 710.611C1143.88 710.258 1144.19 709.785 1144.35 709.253C1144.59 708.384 1144.59 707.467 1144.35 706.597C1144.14 705.88 1143.8 705.208 1143.34 704.62C1140.92 701.449 1137.98 699.927 1135.6 696.652C1134.26 694.776 1133.15 692.747 1132.3 690.609C1131.55 688.729 1130.06 685.692 1130.65 683.148C1131.32 680.104 1133.6 680.365 1134.98 680.783C1139.36 682.088 1143.44 685.2 1147.15 689.072C1151.11 693.19 1154.69 698.152 1158.26 703.083C1159.61 704.956 1161.03 706.881 1162.75 707.56C1164.47 708.239 1166.65 707.142 1167.37 704.441C1168.1 701.74 1167.25 698.637 1167.07 695.951C1166.83 692.746 1166.98 689.523 1167.53 686.356C1167.77 684.682 1168.34 683.07 1169.2 681.611C1171.13 678.791 1173.99 679.783 1175.86 681.917C1177.28 683.702 1178.39 685.722 1179.12 687.886C1181.21 693.864 1182.47 700.103 1182.86 706.426C1183.14 710.343 1183.74 714.424 1185.35 717.46C1187.97 722.37 1192.83 721.982 1196.61 719.408C1203.19 714.931 1208.26 704.814 1209.61 693.504C1210.05 689.818 1210.17 685.834 1211.51 682.745C1212.69 680.074 1215.7 678.268 1217.17 681.148C1217.77 682.588 1217.93 684.168 1217.65 685.699C1217.39 687.216 1217.02 688.712 1216.54 690.176C1215.79 692.713 1215.04 697.465 1217.06 698.95C1217.36 699.132 1217.7 699.247 1218.05 699.286C1218.4 699.324 1218.76 699.286 1219.09 699.174C1225.7 697.801 1231.85 691.594 1235.89 682.931C1237.35 679.672 1238.47 676.269 1239.23 672.777C1239.71 670.643 1239.91 668.353 1240.45 666.234C1240.8 664.566 1241.5 662.992 1242.5 661.616C1245.08 658.542 1251.01 659.989 1251.35 666.577C1251.55 670.39 1250.54 674.12 1250.16 677.851C1249.93 680.178 1251.37 680.164 1252.45 680.089C1257.61 679.567 1262.17 674.374 1266.22 668.972C1271.03 662.548 1276.36 654.207 1282.92 653.961C1284.42 653.909 1286.91 654.103 1287.81 656.408C1288.22 657.821 1288.22 659.323 1287.81 660.735C1286.48 666.241 1282.57 669.084 1279.58 671.807C1271.14 679.699 1263.73 688.606 1257.49 698.323C1256.54 699.815 1255.56 702.278 1256.47 703.74C1256.64 704.018 1256.89 704.238 1257.19 704.371C1257.49 704.504 1257.83 704.544 1258.15 704.486C1261.24 704.247 1264.13 701.8 1266.95 699.771C1269.77 697.741 1272.98 695.966 1275.93 697.495C1276.84 698.04 1277.63 698.76 1278.26 699.613C1278.9 700.466 1279.35 701.435 1279.6 702.464C1280.13 704.268 1280.22 706.172 1279.85 708.015C1278.76 713.081 1274.08 715.356 1271.49 717.856C1267.94 721.275 1264.69 724.992 1261.77 728.965C1259.08 732.643 1256.53 736.672 1253.84 740.283C1244.12 753.213 1230.65 755.13 1218.69 756.63C1205.66 758.257 1192.61 757.376 1179.66 755.668C1170.25 754.414 1160.96 751.743 1151.77 748.572C1148.61 747.431 1145.48 746.185 1142.38 744.708C1139.05 743.126 1134.15 742.149 1132.88 735.919C1132.61 734.576 1132.92 733.486 1133.81 732.987C1136.57 731.42 1140.5 733.516 1143.1 734.897C1146.68 736.807 1150.08 739.53 1153.76 741C1154.35 741.29 1155 741.457 1155.65 741.492C1156.31 741.526 1156.97 741.427 1157.59 741.201C1158.2 740.947 1158.7 740.491 1159 739.91C1159.39 739.154 1159.49 738.279 1159.27 737.456C1159.12 737.011 1158.86 736.609 1158.52 736.284C1151.9 729.513 1143.99 724.13 1135.25 720.452C1132.44 719.251 1129.58 718.266 1126.88 716.565C1124.69 715.219 1122.81 713.441 1121.34 711.343C1120.08 709.336 1118.06 705.792 1118.7 702.591Z" fill="#407BFF"/>
<path opacity="0.1" d="M1261.77 647.746C1261.27 648.262 1260.62 648.603 1259.9 648.715C1259.19 648.827 1258.47 648.706 1257.83 648.368C1257.19 648.031 1256.69 647.497 1256.38 646.846C1256.08 646.195 1256 645.464 1256.15 644.762C1258.73 632.265 1264.34 623.177 1271.01 627.892C1275.99 631.407 1268.18 641.098 1261.77 647.746Z" fill="#407BFF"/>
<path opacity="0.3" d="M1243.67 653.58C1245.71 652.457 1247.44 650.847 1248.7 648.894C1249.97 646.941 1250.73 644.706 1250.92 642.389L1255.97 580.949C1256.24 577.79 1255.83 574.612 1254.79 571.618C1253.75 568.625 1252.09 565.881 1249.92 563.565L1234.34 546.92C1233.48 545.999 1232.83 544.911 1232.41 543.724C1232 542.538 1231.84 541.278 1231.94 540.026L1232.69 531.028L1192.36 527.723L1191.62 536.721C1191.51 537.972 1191.15 539.189 1190.55 540.293C1189.95 541.396 1189.12 542.362 1188.12 543.129L1170.02 557.029C1167.5 558.963 1165.42 561.401 1163.9 564.185C1162.39 566.969 1161.47 570.038 1161.21 573.197L1156.15 634.637C1155.95 636.951 1156.34 639.277 1157.27 641.407C1158.2 643.536 1159.64 645.404 1161.46 646.843C1159.42 647.966 1157.69 649.576 1156.43 651.529C1155.17 653.482 1154.41 655.717 1154.22 658.034L1147.77 736.374C1147.46 740.098 1148.65 743.791 1151.08 746.64C1153.5 749.49 1156.96 751.264 1160.69 751.572L1227.27 757.026C1229.11 757.178 1230.97 756.965 1232.74 756.4C1234.51 755.835 1236.14 754.928 1237.56 753.731C1238.97 752.535 1240.14 751.072 1240.99 749.426C1241.84 747.781 1242.35 745.985 1242.5 744.141L1248.96 665.801C1249.15 663.487 1248.78 661.16 1247.85 659.028C1246.93 656.896 1245.49 655.024 1243.67 653.58Z" fill="#407BFF"/>
<path opacity="0.3" d="M1192.38 527.736L1191.8 534.674L1232.12 537.98L1232.69 531.043L1192.38 527.736Z" fill="#407BFF"/>
<path opacity="0.3" d="M1249.55 565.169L1233.97 548.509C1233.97 548.509 1223.92 548.941 1231.72 561.23C1238.37 571.623 1249.96 570.004 1249.55 565.169Z" fill="white"/>
<path opacity="0.2" d="M1147.78 736.344C1147.47 740.068 1148.66 743.761 1151.09 746.611C1153.51 749.46 1156.97 751.234 1160.7 751.542L1227.27 756.996C1229.12 757.148 1230.98 756.935 1232.75 756.37C1234.51 755.805 1236.15 754.898 1237.57 753.702C1238.98 752.505 1240.15 751.042 1240.99 749.397C1241.84 747.751 1242.36 745.955 1242.51 744.111L1147.78 736.344Z" fill="#407BFF"/>
<path opacity="0.3" d="M1246.64 566.609C1248.38 568.47 1249.71 570.673 1250.55 573.077C1251.38 575.48 1251.71 578.032 1251.5 580.568L1246.44 642.016C1246.31 643.596 1245.79 645.118 1244.93 646.448C1244.06 647.779 1242.88 648.875 1241.49 649.641L1235.61 652.894L1240.88 657.065C1242.13 658.046 1243.11 659.319 1243.75 660.772C1244.38 662.225 1244.64 663.812 1244.51 665.391L1238.06 743.73C1237.85 746.269 1236.64 748.622 1234.7 750.272C1232.75 751.923 1230.23 752.736 1227.68 752.534L1161.11 747.08C1159.85 746.98 1158.62 746.633 1157.49 746.058C1156.36 745.483 1155.35 744.692 1154.53 743.73C1153.71 742.767 1153.08 741.653 1152.69 740.45C1152.3 739.246 1152.15 737.978 1152.25 736.717L1158.7 658.378C1158.83 656.797 1159.35 655.273 1160.21 653.942C1161.08 652.61 1162.26 651.512 1163.65 650.745L1169.53 647.492L1164.3 643.322C1163.05 642.341 1162.07 641.067 1161.43 639.614C1160.8 638.161 1160.53 636.575 1160.66 634.995L1165.73 573.555C1165.94 571.019 1166.68 568.554 1167.9 566.318C1169.12 564.083 1170.79 562.126 1172.81 560.573C1178.79 556.716 1194.5 566.318 1212.9 567.825C1231.29 569.332 1242.79 564.676 1246.64 566.609Z" fill="#407BFF"/>
<path opacity="0.2" d="M1212.86 567.832C1194.47 566.34 1178.75 556.716 1172.77 560.573C1183.24 566.318 1195.21 569.877 1212.57 571.302C1229.93 572.727 1246.64 566.609 1246.64 566.609C1242.79 564.676 1231.24 569.347 1212.86 567.832Z" fill="#407BFF"/>
<path opacity="0.2" d="M1156.15 634.637C1155.96 636.951 1156.35 639.277 1157.27 641.407C1158.2 643.536 1159.64 645.404 1161.47 646.843L1243.67 653.558C1245.71 652.435 1247.44 650.824 1248.7 648.872C1249.97 646.919 1250.73 644.684 1250.92 642.367L1156.15 634.637Z" fill="#407BFF"/>
<path d="M1233.53 520.039L1193.33 516.732C1191.65 516.593 1190.17 517.843 1190.03 519.522L1189.23 529.278C1189.09 530.958 1190.35 532.432 1192.03 532.571L1232.23 535.878C1233.92 536.016 1235.39 534.767 1235.53 533.087L1236.33 523.331C1236.47 521.651 1235.22 520.178 1233.53 520.039Z" fill="#407BFF"/>
<path opacity="0.2" d="M1194.07 531.065C1194.02 531.061 1193.97 531.048 1193.93 531.026C1193.88 531.003 1193.84 530.973 1193.81 530.935C1193.78 530.898 1193.76 530.854 1193.74 530.807C1193.73 530.761 1193.72 530.711 1193.72 530.662L1194.67 518.859C1194.68 518.76 1194.72 518.669 1194.8 518.604C1194.87 518.54 1194.97 518.508 1195.07 518.516C1195.17 518.524 1195.26 518.571 1195.33 518.646C1195.39 518.722 1195.42 518.82 1195.42 518.919L1194.44 530.715C1194.44 530.81 1194.4 530.899 1194.33 530.964C1194.26 531.029 1194.16 531.065 1194.07 531.065Z" fill="white"/>
<path opacity="0.2" d="M1201.36 531.662C1201.31 531.658 1201.26 531.645 1201.22 531.623C1201.18 531.6 1201.14 531.569 1201.11 531.532C1201.07 531.495 1201.05 531.451 1201.03 531.404C1201.02 531.358 1201.01 531.308 1201.02 531.259L1201.99 519.464C1202 519.365 1202.05 519.274 1202.12 519.21C1202.2 519.146 1202.3 519.114 1202.39 519.12C1202.44 519.124 1202.49 519.138 1202.53 519.16C1202.58 519.182 1202.62 519.213 1202.65 519.251C1202.68 519.288 1202.7 519.332 1202.72 519.379C1202.73 519.425 1202.74 519.475 1202.73 519.523L1201.74 531.319C1201.73 531.412 1201.68 531.498 1201.61 531.562C1201.55 531.625 1201.46 531.661 1201.36 531.662Z" fill="white"/>
<path opacity="0.2" d="M1208.65 532.289C1208.6 532.285 1208.55 532.272 1208.51 532.249C1208.46 532.227 1208.42 532.196 1208.39 532.159C1208.36 532.121 1208.34 532.078 1208.32 532.031C1208.31 531.984 1208.3 531.935 1208.3 531.886L1209.28 520.09C1209.29 519.993 1209.34 519.903 1209.41 519.839C1209.49 519.776 1209.58 519.743 1209.68 519.747C1209.73 519.751 1209.78 519.764 1209.82 519.787C1209.86 519.809 1209.9 519.84 1209.94 519.877C1209.97 519.915 1209.99 519.958 1210.01 520.005C1210.02 520.052 1210.03 520.101 1210.02 520.15L1209.05 531.946C1209.05 531.995 1209.03 532.042 1209.01 532.086C1208.99 532.13 1208.96 532.169 1208.92 532.201C1208.88 532.233 1208.84 532.257 1208.79 532.272C1208.75 532.287 1208.7 532.293 1208.65 532.289Z" fill="white"/>
<path opacity="0.2" d="M1215.94 532.856C1215.89 532.852 1215.84 532.839 1215.8 532.816C1215.76 532.794 1215.72 532.763 1215.68 532.726C1215.65 532.688 1215.63 532.645 1215.61 532.598C1215.6 532.551 1215.59 532.502 1215.6 532.453L1216.57 520.657C1216.58 520.559 1216.63 520.468 1216.7 520.404C1216.78 520.34 1216.87 520.308 1216.97 520.314C1217.02 520.318 1217.07 520.331 1217.11 520.354C1217.16 520.376 1217.2 520.407 1217.23 520.445C1217.26 520.482 1217.28 520.526 1217.3 520.572C1217.31 520.619 1217.31 520.668 1217.31 520.717L1216.34 532.513C1216.33 532.561 1216.32 532.609 1216.3 532.653C1216.28 532.697 1216.25 532.736 1216.21 532.768C1216.17 532.8 1216.13 532.824 1216.08 532.839C1216.04 532.854 1215.99 532.86 1215.94 532.856Z" fill="white"/>
<path opacity="0.2" d="M1223.2 533.453C1223.15 533.449 1223.1 533.435 1223.06 533.413C1223.01 533.391 1222.97 533.36 1222.94 533.323C1222.91 533.285 1222.88 533.242 1222.87 533.195C1222.85 533.148 1222.85 533.099 1222.85 533.05L1223.82 521.254C1223.84 521.157 1223.89 521.069 1223.96 521.005C1224.04 520.942 1224.13 520.908 1224.23 520.911C1224.28 520.915 1224.33 520.928 1224.37 520.95C1224.41 520.973 1224.45 521.004 1224.48 521.041C1224.52 521.078 1224.54 521.122 1224.56 521.169C1224.57 521.215 1224.58 521.265 1224.57 521.314L1223.6 533.109C1223.6 533.159 1223.58 533.207 1223.56 533.252C1223.54 533.296 1223.51 533.335 1223.47 533.367C1223.43 533.399 1223.39 533.424 1223.34 533.438C1223.3 533.453 1223.25 533.458 1223.2 533.453Z" fill="white"/>
<path opacity="0.2" d="M1230.52 534.05C1230.47 534.046 1230.42 534.032 1230.38 534.01C1230.33 533.988 1230.3 533.957 1230.26 533.92C1230.23 533.882 1230.21 533.839 1230.19 533.792C1230.18 533.745 1230.17 533.696 1230.18 533.647L1231.12 521.844C1231.13 521.745 1231.17 521.654 1231.25 521.59C1231.33 521.526 1231.42 521.494 1231.52 521.5C1231.62 521.51 1231.71 521.557 1231.77 521.633C1231.84 521.708 1231.87 521.805 1231.86 521.903L1230.89 533.706C1230.88 533.799 1230.84 533.886 1230.77 533.949C1230.7 534.012 1230.61 534.048 1230.52 534.05Z" fill="white"/>
<path opacity="0.2" d="M1168.59 614.112C1167.46 607.838 1158.29 608.285 1157.77 614.635L1156.12 634.637C1155.93 636.951 1156.32 639.277 1157.24 641.407C1158.17 643.536 1159.61 645.404 1161.44 646.843C1159.4 647.966 1157.67 649.576 1156.41 651.529C1155.14 653.482 1154.39 655.717 1154.2 658.034L1147.75 736.374C1147.44 740.098 1148.63 743.791 1151.06 746.64C1153.48 749.49 1156.94 751.264 1160.67 751.572L1177.87 752.982C1179.77 753.136 1181.68 752.855 1183.44 752.158C1185.21 751.461 1186.8 750.369 1188.08 748.964C1189.35 747.559 1190.29 745.881 1190.82 744.057C1191.34 742.234 1191.44 740.315 1191.1 738.448L1168.59 614.112Z" fill="#407BFF"/>
<path opacity="0.3" d="M1234.79 716.692C1234.67 718.13 1234.13 719.501 1233.23 720.631C1232.33 721.761 1231.11 722.599 1229.74 723.041C1228.36 723.482 1226.88 723.506 1225.49 723.109C1224.1 722.713 1222.86 721.914 1221.92 720.814C1220.99 719.713 1220.4 718.361 1220.23 716.927C1220.07 715.494 1220.33 714.043 1220.99 712.76C1221.65 711.476 1222.68 710.417 1223.94 709.716C1225.21 709.015 1226.65 708.703 1228.1 708.821C1230.03 708.98 1231.82 709.899 1233.08 711.375C1234.33 712.851 1234.95 714.763 1234.79 716.692Z" fill="#407BFF"/>
<path opacity="0.3" d="M1211.53 688.438C1211.45 689.456 1211.07 690.426 1210.43 691.226C1209.79 692.026 1208.93 692.62 1207.96 692.933C1206.99 693.245 1205.94 693.262 1204.96 692.982C1203.97 692.702 1203.09 692.136 1202.43 691.358C1201.77 690.579 1201.35 689.622 1201.23 688.607C1201.12 687.593 1201.3 686.566 1201.77 685.658C1202.24 684.75 1202.97 684 1203.86 683.504C1204.76 683.008 1205.78 682.788 1206.8 682.872C1208.17 682.986 1209.43 683.636 1210.32 684.679C1211.21 685.722 1211.64 687.074 1211.53 688.438Z" fill="#407BFF"/>
<path opacity="0.3" d="M1189.9 625.55C1188.87 625.597 1187.86 625.342 1186.98 624.815C1186.11 624.288 1185.41 623.514 1184.97 622.591C1184.54 621.667 1184.38 620.635 1184.54 619.626C1184.69 618.617 1185.14 617.675 1185.82 616.92C1186.51 616.165 1187.41 615.63 1188.4 615.383C1189.4 615.136 1190.44 615.188 1191.4 615.533C1192.37 615.878 1193.2 616.499 1193.81 617.319C1194.42 618.139 1194.77 619.121 1194.82 620.141C1194.86 620.819 1194.76 621.497 1194.53 622.136C1194.3 622.775 1193.94 623.363 1193.48 623.865C1193.03 624.368 1192.47 624.775 1191.86 625.064C1191.24 625.353 1190.58 625.518 1189.9 625.55Z" fill="#407BFF"/>
<path opacity="0.3" d="M1204.01 594.684C1203.29 594.72 1202.57 594.541 1201.94 594.169C1201.32 593.798 1200.82 593.25 1200.51 592.596C1200.2 591.942 1200.09 591.21 1200.2 590.494C1200.31 589.779 1200.63 589.111 1201.11 588.575C1201.6 588.039 1202.24 587.66 1202.94 587.485C1203.65 587.31 1204.39 587.348 1205.07 587.593C1205.75 587.838 1206.35 588.28 1206.78 588.862C1207.21 589.445 1207.45 590.141 1207.49 590.864C1207.53 591.83 1207.19 592.775 1206.54 593.491C1205.89 594.207 1204.98 594.636 1204.01 594.684Z" fill="#407BFF"/>
<path opacity="0.3" d="M1226.72 666.122C1226.68 666.542 1226.52 666.942 1226.26 667.272C1226 667.602 1225.64 667.847 1225.24 667.976C1224.84 668.104 1224.41 668.111 1224 667.995C1223.59 667.879 1223.23 667.645 1222.96 667.323C1222.68 667.002 1222.51 666.606 1222.46 666.187C1222.41 665.769 1222.49 665.345 1222.68 664.97C1222.88 664.594 1223.18 664.285 1223.55 664.079C1223.92 663.874 1224.34 663.783 1224.76 663.817C1225.33 663.864 1225.85 664.134 1226.22 664.566C1226.58 664.998 1226.76 665.557 1226.72 666.122Z" fill="#407BFF"/>
<path opacity="0.7" d="M1187.97 724.496H1187.61C1187.04 724.457 1186.48 724.305 1185.97 724.049C1185.45 723.793 1185 723.437 1184.62 723.004C1184.25 722.572 1183.97 722.071 1183.8 721.531C1183.63 720.99 1183.56 720.421 1183.61 719.855C1183.68 719.019 1183.99 718.222 1184.51 717.56C1185.03 716.898 1185.73 716.401 1186.52 716.128C1187.32 715.856 1188.17 715.82 1188.99 716.025C1189.8 716.231 1190.54 716.669 1191.11 717.286C1191.68 717.902 1192.06 718.671 1192.2 719.498C1192.34 720.326 1192.23 721.175 1191.9 721.944C1191.56 722.713 1191.01 723.367 1190.3 723.827C1189.6 724.286 1188.78 724.532 1187.94 724.533L1187.97 724.496ZM1187.97 716.408C1187.12 716.413 1186.3 716.706 1185.64 717.24C1184.98 717.774 1184.52 718.517 1184.34 719.346C1184.16 720.176 1184.26 721.041 1184.64 721.801C1185.02 722.561 1185.65 723.169 1186.42 723.525C1187.19 723.881 1188.06 723.964 1188.89 723.76C1189.72 723.556 1190.45 723.077 1190.96 722.403C1191.48 721.728 1191.75 720.898 1191.73 720.05C1191.71 719.202 1191.4 718.386 1190.85 717.737C1190.53 717.359 1190.14 717.049 1189.7 716.823C1189.26 716.598 1188.78 716.462 1188.29 716.423L1187.97 716.408Z" fill="white"/>
<path opacity="0.7" d="M1234.24 637.189H1233.97C1233.14 637.12 1232.37 636.726 1231.83 636.093C1231.29 635.459 1231.03 634.638 1231.09 633.809C1231.16 632.979 1231.56 632.21 1232.2 631.672C1232.83 631.133 1233.66 630.869 1234.49 630.937C1235.32 631.005 1236.09 631.399 1236.63 632.033C1237.17 632.666 1237.44 633.488 1237.37 634.316C1237.3 635.146 1236.9 635.915 1236.27 636.458C1235.7 636.934 1234.98 637.194 1234.24 637.189ZM1231.66 633.839C1231.62 634.346 1231.73 634.853 1231.98 635.296C1232.23 635.739 1232.61 636.098 1233.07 636.329C1233.52 636.559 1234.03 636.65 1234.54 636.591C1235.05 636.532 1235.52 636.324 1235.91 635.995C1236.17 635.776 1236.39 635.508 1236.54 635.206C1236.7 634.904 1236.79 634.575 1236.82 634.236C1236.85 633.898 1236.81 633.558 1236.7 633.235C1236.6 632.912 1236.43 632.613 1236.21 632.354C1235.98 632.103 1235.71 631.899 1235.4 631.756C1235.09 631.613 1234.76 631.532 1234.42 631.519C1234.08 631.49 1233.74 631.528 1233.41 631.631C1233.09 631.735 1232.79 631.9 1232.53 632.119C1232.27 632.338 1232.06 632.606 1231.9 632.908C1231.75 633.209 1231.65 633.538 1231.63 633.876L1231.66 633.839Z" fill="white"/>
<path opacity="0.7" d="M1185.91 571.04H1185.8C1185.41 571.002 1185.05 570.816 1184.8 570.521C1184.55 570.226 1184.42 569.845 1184.45 569.459C1184.47 569.169 1184.57 568.89 1184.75 568.658C1184.92 568.426 1185.16 568.25 1185.44 568.151C1185.71 568.053 1186.01 568.037 1186.29 568.105C1186.58 568.173 1186.83 568.322 1187.03 568.534C1187.23 568.746 1187.37 569.012 1187.42 569.299C1187.47 569.585 1187.43 569.88 1187.32 570.147C1187.2 570.414 1187.01 570.641 1186.77 570.802C1186.52 570.962 1186.24 571.047 1185.95 571.048L1185.91 571.04ZM1185 569.504C1184.99 569.681 1185.03 569.859 1185.12 570.015C1185.2 570.17 1185.33 570.297 1185.49 570.378C1185.65 570.459 1185.83 570.492 1186.01 570.472C1186.19 570.451 1186.35 570.379 1186.49 570.264C1186.63 570.148 1186.73 569.995 1186.78 569.824C1186.82 569.653 1186.82 569.471 1186.77 569.301C1186.71 569.131 1186.61 568.981 1186.47 568.87C1186.33 568.758 1186.16 568.691 1185.98 568.675C1185.86 568.664 1185.74 568.677 1185.63 568.713C1185.52 568.748 1185.41 568.807 1185.32 568.884C1185.23 568.961 1185.15 569.055 1185.1 569.162C1185.04 569.268 1185.01 569.384 1185 569.504Z" fill="white"/>
<path opacity="0.7" d="M1218.98 609.681H1218.67C1218.18 609.642 1217.7 609.507 1217.26 609.282C1216.82 609.057 1216.43 608.748 1216.11 608.372C1215.79 607.996 1215.55 607.561 1215.4 607.092C1215.25 606.622 1215.19 606.128 1215.24 605.637C1215.3 604.916 1215.57 604.23 1216.02 603.661C1216.47 603.092 1217.07 602.666 1217.76 602.433C1218.45 602.2 1219.19 602.172 1219.89 602.351C1220.59 602.529 1221.23 602.908 1221.72 603.441C1222.21 603.973 1222.53 604.636 1222.65 605.35C1222.77 606.063 1222.68 606.795 1222.39 607.458C1222.1 608.121 1221.62 608.685 1221.02 609.082C1220.41 609.48 1219.7 609.693 1218.98 609.695L1218.98 609.681ZM1218.98 602.742C1218.23 602.739 1217.5 603.003 1216.93 603.488C1216.28 604.033 1215.88 604.811 1215.81 605.652C1215.76 606.173 1215.85 606.697 1216.06 607.177C1216.27 607.657 1216.59 608.078 1217 608.404C1217.42 608.729 1217.9 608.948 1218.42 609.042C1218.93 609.136 1219.46 609.101 1219.96 608.942C1220.46 608.782 1220.92 608.502 1221.28 608.126C1221.65 607.751 1221.91 607.291 1222.06 606.788C1222.2 606.285 1222.22 605.754 1222.11 605.242C1222 604.731 1221.77 604.254 1221.43 603.854C1221.16 603.533 1220.83 603.27 1220.45 603.08C1220.08 602.889 1219.67 602.774 1219.25 602.742H1218.98Z" fill="white"/>
<path opacity="0.3" d="M1249.67 642.3L1254.5 583.709C1254.53 583.335 1254.49 582.958 1254.37 582.601C1254.26 582.243 1254.07 581.912 1253.83 581.626C1253.58 581.339 1253.29 581.104 1252.95 580.933C1252.62 580.762 1252.25 580.658 1251.87 580.628C1251.5 580.596 1251.12 580.639 1250.76 580.753C1250.41 580.867 1250.07 581.051 1249.79 581.293C1249.5 581.536 1249.26 581.833 1249.09 582.167C1248.92 582.501 1248.82 582.865 1248.79 583.239L1243.95 641.829C1243.8 643.777 1243.16 645.655 1242.09 647.296C1241.03 648.937 1239.57 650.289 1237.86 651.23L1234.92 652.864L1237.56 654.946C1239.1 656.155 1240.31 657.725 1241.09 659.516C1241.88 661.308 1242.2 663.264 1242.05 665.212L1235.59 743.551C1235.2 748.252 1232.24 750.542 1228.07 752.37C1227.81 752.488 1227.59 752.69 1227.45 752.945C1227.32 753.2 1227.27 753.492 1227.32 753.777C1227.37 754.062 1227.51 754.323 1227.72 754.52C1227.93 754.716 1228.2 754.836 1228.49 754.862C1231.63 755.118 1234.75 754.12 1237.15 752.087C1239.55 750.054 1241.05 747.153 1241.31 744.021L1247.76 665.682C1247.92 663.734 1247.59 661.777 1246.81 659.986C1246.03 658.194 1244.81 656.624 1243.27 655.416L1240.63 653.327L1243.57 651.7C1245.29 650.757 1246.74 649.405 1247.8 647.765C1248.87 646.124 1249.51 644.247 1249.67 642.3Z" fill="white"/>
<path opacity="0.3" d="M1327.31 733.352C1326.5 729.696 1316.42 731.86 1314.33 732.196C1310.28 732.93 1306.31 734.072 1302.48 735.605C1298.27 737.254 1293.38 739.679 1289.02 737.172C1286.5 735.725 1295.25 732.867 1296.04 732.576C1299.76 731.273 1303.35 729.63 1306.77 727.667C1308.15 726.846 1310.83 724.884 1309.68 722.892C1308.72 721.243 1305.29 721.4 1303.2 721.653C1296.88 722.426 1290.68 723.977 1284.73 726.272C1278.96 728.561 1273.3 731.144 1267.78 734.009C1265.65 735.211 1263.32 736.046 1260.91 736.478C1258.28 736.851 1255.05 736.292 1254.01 734.837C1252.97 733.382 1254.31 731.681 1254.62 730.219C1255.05 728.47 1254.87 726.626 1254.1 724.996C1253.59 723.903 1252.74 723.007 1251.67 722.444C1248.82 720.952 1244.51 721.504 1241.65 722.683C1239.79 723.467 1238.1 724.585 1236.65 725.981C1233.72 728.695 1231.67 732.213 1230.75 736.09C1230.52 737.305 1230.05 738.461 1229.37 739.495C1228.69 740.528 1227.81 741.417 1226.79 742.111C1222.78 744.805 1215.43 744.648 1209.81 743.298C1200.01 740.977 1192.53 735.553 1190.73 729.428C1189.85 726.511 1189.42 723.459 1185.49 722.318C1182.95 721.571 1177.62 722.094 1178.76 725.302C1179.17 726.181 1179.71 726.995 1180.36 727.719C1181.4 729.085 1182.5 731.659 1179.42 732.487C1178.42 732.698 1177.39 732.749 1176.37 732.636C1166.44 731.972 1157.3 728.667 1151.37 724.011C1149.44 722.497 1147.8 720.644 1146.54 718.542C1145.84 717.386 1145.58 716.14 1144.81 714.998C1144.08 713.9 1143.04 713.037 1141.82 712.514C1138.01 710.88 1129.05 711.731 1128.42 715.312C1128.08 717.252 1129.29 719.356 1129.91 721.198C1130.02 721.431 1130.05 721.695 1129.99 721.944C1129.81 722.414 1129.1 722.549 1128.49 722.586C1120.48 723.116 1112.71 720.012 1105.98 716.774C1098.86 713.342 1091.02 708.873 1081.13 708.821C1079.08 708.728 1077.03 708.962 1075.06 709.515C1074.56 709.648 1074.1 709.887 1073.7 710.216C1073.46 710.467 1073.3 710.785 1073.24 711.128C1073.18 711.471 1073.23 711.824 1073.37 712.141C1073.69 712.798 1074.17 713.367 1074.76 713.797C1077.75 716.229 1081.94 717.214 1085.77 718.468C1097.11 722.134 1108.07 726.868 1118.51 732.606C1119.57 733.195 1121.44 734.561 1119.96 735.59C1118.48 736.62 1115.47 735.956 1113.7 735.665C1110.48 735.143 1107.39 734.307 1104.26 733.524C1100.11 732.479 1095.28 731.532 1090.79 732.397C1088.42 732.852 1086.3 733.822 1085.19 735.135C1084.81 735.519 1084.55 736.015 1084.47 736.55C1084.38 737.086 1084.47 737.635 1084.71 738.12C1086.25 740.858 1093.28 742.037 1097.11 743.342C1102.03 745.015 1106.83 746.991 1111.5 749.259C1115.48 751.228 1119.19 753.385 1123.23 755.317C1137.65 762.218 1157.81 763.106 1175.83 763.778C1195.39 764.524 1215.04 763.89 1234.54 762.808C1248.76 762.017 1262.71 760.458 1276.63 758.622C1280.63 758.1 1284.61 757.458 1288.6 756.914C1292.65 756.451 1296.65 755.66 1300.57 754.549C1301.98 754.19 1303.29 753.534 1304.42 752.624C1305.49 751.631 1305.83 750.333 1303.91 749.96C1299.9 749.162 1295.77 750.072 1291.85 750.781C1287.46 751.587 1283.1 752.514 1278.78 753.564C1276.81 754.087 1274.81 754.494 1272.8 754.78C1270.77 755.064 1268.7 754.932 1266.73 754.392C1266.09 754.19 1265.38 753.832 1265.35 753.265C1265.31 752.698 1265.85 752.34 1266.4 752.124C1274.47 748.93 1283.04 746.901 1291.68 745.036C1297.53 743.768 1303.49 742.992 1309.4 741.999C1314.77 741.097 1320.44 740.888 1325.1 737.485C1326.03 736.888 1326.75 736.021 1327.17 735.001C1327.37 734.476 1327.42 733.904 1327.31 733.352Z" fill="#407BFF"/>
<path opacity="0.3" d="M1095.85 703.143C1093.66 696.928 1085.85 685.923 1084.2 692.422C1083.32 696.07 1095.85 703.143 1095.85 703.143Z" fill="#407BFF"/>
<path opacity="0.3" d="M1291.96 715.378C1296.13 711.581 1301.34 709.321 1302.01 712.663C1302.64 715.826 1291.96 715.378 1291.96 715.378Z" fill="#407BFF"/>
<path opacity="0.3" d="M1120.72 685.177C1117.86 683.685 1115.63 681.29 1117.31 680.29C1118.98 679.291 1120.72 685.177 1120.72 685.177Z" fill="#407BFF"/>
</g>
</g>
<g clip-path="url(#clip2_103_129)">
<path d="M1358.95 124.149C1358.73 126.908 1357.69 129.538 1355.96 131.706C1354.24 133.874 1351.92 135.483 1349.28 136.33C1346.64 137.176 1343.82 137.222 1341.15 136.461C1338.49 135.701 1336.12 134.168 1334.32 132.057C1332.53 129.946 1331.41 127.351 1331.09 124.6C1330.78 121.85 1331.28 119.067 1332.55 116.604C1333.81 114.142 1335.78 112.109 1338.2 110.764C1340.62 109.419 1343.38 108.821 1346.14 109.047C1349.84 109.353 1353.27 111.115 1355.67 113.947C1358.07 116.779 1359.25 120.448 1358.95 124.149Z" fill="#ECF2FF"/>
<path d="M619.954 143.149C619.727 145.908 618.686 148.538 616.965 150.706C615.243 152.874 612.917 154.483 610.281 155.33C607.645 156.176 604.817 156.222 602.154 155.461C599.492 154.701 597.115 153.168 595.324 151.057C593.533 148.946 592.408 146.351 592.092 143.6C591.775 140.85 592.281 138.067 593.546 135.604C594.811 133.142 596.778 131.109 599.198 129.764C601.618 128.419 604.382 127.821 607.141 128.047C610.842 128.353 614.27 130.115 616.672 132.947C619.075 135.779 620.255 139.448 619.954 143.149Z" fill="#ECF2FF"/>
<path d="M83.9703 237.739C83.8243 239.512 83.1556 241.203 82.0487 242.597C80.9418 243.991 79.4466 245.025 77.7519 245.569C76.0572 246.113 74.2393 246.143 72.5279 245.654C70.8165 245.165 69.2884 244.179 68.137 242.822C66.9856 241.465 66.2624 239.797 66.059 238.029C65.8556 236.261 66.1809 234.472 66.994 232.889C67.8071 231.305 69.0714 229.999 70.6271 229.134C72.1827 228.269 73.9599 227.885 75.7338 228.03C78.1129 228.227 80.3165 229.36 81.8608 231.18C83.4051 233.001 84.1638 235.359 83.9703 237.739Z" fill="#ECF2FF"/>
<path d="M120.954 443.149C120.727 445.908 119.686 448.538 117.965 450.706C116.243 452.874 113.917 454.483 111.281 455.33C108.645 456.176 105.817 456.222 103.154 455.461C100.492 454.701 98.1154 453.168 96.3242 451.057C94.5331 448.946 93.4082 446.351 93.0918 443.6C92.7753 440.85 93.2815 438.067 94.5463 435.604C95.8111 433.142 97.7778 431.109 100.198 429.764C102.618 428.419 105.382 427.821 108.141 428.047C111.842 428.353 115.27 430.115 117.672 432.947C120.075 435.779 121.255 439.448 120.954 443.149Z" fill="#C6D7FF"/>
<path d="M757.954 631.149C757.727 633.908 756.686 636.538 754.965 638.706C753.243 640.874 750.917 642.483 748.281 643.33C745.645 644.176 742.817 644.222 740.154 643.461C737.492 642.701 735.115 641.168 733.324 639.057C731.533 636.946 730.408 634.351 730.092 631.6C729.775 628.85 730.281 626.067 731.546 623.604C732.811 621.142 734.778 619.109 737.198 617.764C739.618 616.419 742.382 615.821 745.141 616.047C748.842 616.353 752.27 618.115 754.672 620.947C757.075 623.779 758.255 627.448 757.954 631.149Z" fill="#C6D7FF"/>
<path d="M1386.95 618.149C1386.73 620.908 1385.69 623.538 1383.96 625.706C1382.24 627.874 1379.92 629.483 1377.28 630.33C1374.64 631.176 1371.82 631.222 1369.15 630.461C1366.49 629.701 1364.12 628.168 1362.32 626.057C1360.53 623.946 1359.41 621.351 1359.09 618.6C1358.78 615.85 1359.28 613.067 1360.55 610.604C1361.81 608.142 1363.78 606.109 1366.2 604.764C1368.62 603.419 1371.38 602.821 1374.14 603.047C1377.84 603.353 1381.27 605.115 1383.67 607.947C1386.07 610.779 1387.25 614.448 1386.95 618.149Z" fill="#C6D7FF"/>
<path opacity="0.7" d="M732.199 229.836H730.624C728.112 229.663 725.658 228.994 723.406 227.868C721.153 226.741 719.146 225.18 717.5 223.273C715.881 221.373 714.656 219.171 713.896 216.793C713.135 214.416 712.855 211.911 713.071 209.425C713.376 205.748 714.746 202.24 717.012 199.329C719.278 196.418 722.342 194.229 725.831 193.031C729.32 191.832 733.082 191.675 736.658 192.579C740.234 193.483 743.47 195.409 745.97 198.122C748.471 200.835 750.127 204.216 750.738 207.855C751.349 211.493 750.887 215.231 749.409 218.611C747.931 221.992 745.502 224.869 742.416 226.891C739.331 228.913 735.724 229.994 732.035 230L732.199 229.836ZM732.199 194.264C728.468 194.283 724.854 195.573 721.954 197.922C719.055 200.272 717.042 203.539 716.25 207.186C715.457 210.833 715.931 214.642 717.594 217.983C719.257 221.324 722.009 223.998 725.396 225.565C728.783 227.131 732.603 227.495 736.225 226.598C739.847 225.7 743.055 223.595 745.32 220.628C747.585 217.662 748.77 214.012 748.681 210.281C748.593 206.55 747.234 202.961 744.831 200.105C743.431 198.446 741.715 197.081 739.783 196.089C737.851 195.098 735.742 194.5 733.577 194.33L732.199 194.264Z" fill="#9EBBFF"/>
<path opacity="0.7" d="M228.157 275.87H226.914C224.93 275.734 222.993 275.206 221.215 274.317C219.436 273.427 217.852 272.194 216.553 270.689C215.275 269.189 214.307 267.451 213.707 265.574C213.107 263.697 212.885 261.72 213.056 259.756C213.297 256.854 214.378 254.084 216.167 251.786C217.956 249.488 220.375 247.76 223.13 246.814C225.884 245.867 228.854 245.744 231.677 246.457C234.501 247.171 237.055 248.692 239.029 250.833C241.003 252.975 242.311 255.645 242.793 258.517C243.275 261.389 242.911 264.34 241.744 267.009C240.577 269.678 238.659 271.949 236.223 273.545C233.788 275.142 230.94 275.995 228.028 276L228.157 275.87ZM228.157 247.788C225.211 247.802 222.358 248.821 220.069 250.676C217.78 252.53 216.191 255.11 215.566 257.989C214.94 260.868 215.314 263.875 216.627 266.513C217.94 269.15 220.112 271.262 222.786 272.498C225.46 273.735 228.476 274.023 231.336 273.314C234.195 272.606 236.728 270.943 238.516 268.601C240.304 266.259 241.24 263.378 241.17 260.432C241.099 257.487 240.027 254.653 238.13 252.399C237.024 251.089 235.67 250.011 234.145 249.228C232.62 248.446 230.954 247.973 229.245 247.839L228.157 247.788Z" fill="#9EBBFF"/>
<path opacity="0.7" d="M37.1992 690.836H35.6243C33.1117 690.663 30.6582 689.994 28.4055 688.868C26.1528 687.741 24.1457 686.18 22.5 684.273C20.8811 682.373 19.6559 680.171 18.8955 677.793C18.1351 675.416 17.8547 672.911 18.0706 670.425C18.3764 666.748 19.7459 663.24 22.0118 660.329C24.2777 657.418 27.3421 655.229 30.8308 654.031C34.3195 652.832 38.0817 652.675 41.658 653.579C45.2344 654.483 48.4702 656.409 50.9705 659.122C53.4707 661.835 55.1273 665.216 55.7379 668.855C56.3485 672.493 55.8868 676.231 54.4091 679.611C52.9314 682.992 50.5016 685.869 47.4164 687.891C44.3312 689.913 40.724 690.994 37.0352 691L37.1992 690.836ZM37.1992 655.264C33.4676 655.283 29.8538 656.573 26.9542 658.922C24.0546 661.272 22.0424 664.539 21.2497 668.186C20.4571 671.833 20.9312 675.642 22.594 678.983C24.2568 682.324 27.0089 684.998 30.396 686.565C33.7832 688.131 37.6031 688.495 41.2252 687.598C44.8474 686.7 48.0555 684.595 50.32 681.628C52.5845 678.662 53.7702 675.012 53.6814 671.281C53.5925 667.55 52.2345 663.961 49.8313 661.105C48.431 659.446 46.7151 658.081 44.7833 657.089C42.8514 656.098 40.742 655.5 38.5773 655.33L37.1992 655.264Z" fill="#C6D7FF"/>
<path opacity="0.7" d="M688.262 461.784H686.19C682.884 461.557 679.655 460.677 676.691 459.195C673.727 457.712 671.086 455.657 668.921 453.148C666.791 450.649 665.179 447.751 664.178 444.623C663.178 441.495 662.809 438.199 663.093 434.927C663.495 430.09 665.297 425.474 668.279 421.643C671.26 417.813 675.292 414.933 679.883 413.356C684.473 411.779 689.423 411.573 694.129 412.762C698.835 413.952 703.092 416.486 706.382 420.055C709.672 423.624 711.852 428.074 712.655 432.862C713.459 437.649 712.851 442.567 710.907 447.015C708.962 451.463 705.765 455.248 701.706 457.909C697.646 460.57 692.9 461.992 688.046 462L688.262 461.784ZM688.262 414.979C683.352 415.004 678.597 416.701 674.782 419.793C670.967 422.884 668.319 427.183 667.276 431.982C666.233 436.781 666.857 441.792 669.045 446.188C671.233 450.584 674.854 454.103 679.311 456.164C683.767 458.225 688.793 458.704 693.56 457.523C698.326 456.343 702.547 453.572 705.526 449.669C708.506 445.766 710.066 440.963 709.949 436.054C709.832 431.145 708.045 426.422 704.883 422.665C703.041 420.481 700.783 418.685 698.241 417.38C695.699 416.076 692.924 415.289 690.075 415.065L688.262 414.979Z" fill="#C6D7FF"/>
<path opacity="0.7" d="M1400.23 457.81H1398.41C1395.5 457.61 1392.66 456.836 1390.05 455.531C1387.44 454.227 1385.12 452.419 1383.21 450.211C1381.34 448.011 1379.92 445.461 1379.04 442.708C1378.16 439.956 1377.83 437.055 1378.08 434.176C1378.44 429.919 1380.02 425.857 1382.65 422.486C1385.27 419.115 1388.82 416.581 1392.86 415.193C1396.9 413.806 1401.25 413.624 1405.39 414.671C1409.53 415.718 1413.28 417.948 1416.18 421.089C1419.07 424.229 1420.99 428.145 1421.7 432.358C1422.4 436.571 1421.87 440.899 1420.16 444.813C1418.45 448.727 1415.63 452.058 1412.06 454.4C1408.49 456.742 1404.31 457.993 1400.04 458L1400.23 457.81ZM1400.23 416.622C1395.91 416.643 1391.73 418.137 1388.37 420.857C1385.01 423.578 1382.68 427.361 1381.76 431.584C1380.85 435.807 1381.39 440.217 1383.32 444.085C1385.24 447.954 1388.43 451.051 1392.35 452.864C1396.28 454.678 1400.7 455.1 1404.89 454.061C1409.09 453.022 1412.8 450.583 1415.42 447.149C1418.05 443.714 1419.42 439.488 1419.32 435.168C1419.21 430.847 1417.64 426.691 1414.86 423.385C1413.24 421.463 1411.25 419.883 1409.01 418.735C1406.78 417.587 1404.33 416.894 1401.83 416.698L1400.23 416.622Z" fill="#9EBBFF"/>
</g>
<defs>
<clipPath id="clip0_103_129">
<rect width="1440" height="432" fill="white" transform="translate(0 368)"/>
</clipPath>
<clipPath id="clip1_103_129">
<rect width="374" height="278" fill="white" transform="translate(1016 492)"/>
</clipPath>
<clipPath id="clip2_103_129">
<rect width="1404" height="582" fill="white" transform="translate(18 109)"/>
</clipPath>
</defs>
</svg>
