<svg width="328" height="842" fill="none" xmlns="http://www.w3.org/2000/svg">
  <path opacity=".7" d="M302.482 49.784h-2.072a25.076 25.076 0 0 1-17.269-8.636 24.793 24.793 0 0 1-5.828-18.22 25.002 25.002 0 0 1 16.789-21.572 24.995 24.995 0 0 1 32.773 19.506A25.002 25.002 0 0 1 302.266 50l.216-.216Zm0-46.805a21.583 21.583 0 0 0-20.986 17.003 21.591 21.591 0 0 0 12.034 24.182 21.583 21.583 0 0 0 26.216-6.495 21.588 21.588 0 0 0-.643-27.004 21.59 21.59 0 0 0-14.808-7.6l-1.813-.086Z" fill="#C6D7FF"/>
  <path d="M289.201 264.669a12.004 12.004 0 0 1-8.292 10.44 11.995 11.995 0 0 1-12.819-3.662 11.994 11.994 0 0 1-1.524-13.245 11.995 11.995 0 0 1 11.653-6.478 12.01 12.01 0 0 1 10.982 12.945Z" fill="#C6D7FF"/>
  <path d="M36.794 52.405A12 12 0 1 1 25.812 39.46a12.014 12.014 0 0 1 10.982 12.945Zm191.372 77.545a7.998 7.998 0 0 1-5.527 6.96 8.004 8.004 0 0 1-8.547-2.441 7.998 7.998 0 0 1 2.213-12.168 8.008 8.008 0 0 1 4.54-.981 8.01 8.01 0 0 1 7.321 8.63Z" fill="#ECF2FF"/>
  <path opacity=".7" d="M52.959 420.001h-1.327a16.057 16.057 0 0 1-11.051-5.527 15.864 15.864 0 0 1-3.73-11.662 15.996 15.996 0 0 1 31.72-1.322 16.001 16.001 0 0 1-15.75 18.649l.138-.138Zm0-29.955a13.812 13.812 0 0 0-13.431 10.881 13.819 13.819 0 0 0 7.702 15.477 13.81 13.81 0 0 0 16.778-4.157 13.82 13.82 0 0 0-.412-17.283 13.824 13.824 0 0 0-9.477-4.863l-1.16-.055Z" fill="#C6D7FF"/>
  <path d="M310.591 585.085a11.992 11.992 0 0 1-8.291 10.441 11.995 11.995 0 0 1-12.82-3.662 12 12 0 0 1 10.129-19.723 12.012 12.012 0 0 1 10.982 12.944Z" fill="#C6D7FF"/>
  <path opacity=".7" d="M19.2 710.004h-1.576A19.077 19.077 0 0 1 4.5 703.441a18.837 18.837 0 0 1-4.43-13.848 19 19 0 0 1 23.588-16.846 18.994 18.994 0 0 1 14.08 15.276 19.002 19.002 0 0 1-18.703 22.145l.164-.164Zm0-35.572a16.402 16.402 0 0 0-15.95 12.922 16.408 16.408 0 0 0 19.975 19.412 16.406 16.406 0 0 0 12.456-16.317 16.41 16.41 0 0 0-3.85-10.176 16.393 16.393 0 0 0-11.254-5.776l-1.378-.065Z" fill="#9EBBFF"/>
  <path d="M163.711 829.765a13.003 13.003 0 0 1-16.528 11.433 13.001 13.001 0 0 1-2.746-23.862 13.01 13.01 0 0 1 7.377-1.595 13.02 13.02 0 0 1 8.85 4.551 13.008 13.008 0 0 1 3.047 9.473Z" fill="#C6D7FF"/>
  <path opacity=".7" d="M277.131 814.205h-1.327a16.062 16.062 0 0 1-11.052-5.527 15.87 15.87 0 0 1-3.73-11.662 15.998 15.998 0 1 1 30.601 7.736 15.995 15.995 0 0 1-14.63 9.591l.138-.138Zm0-29.956a13.82 13.82 0 0 0-13.431 10.882 13.812 13.812 0 0 0 1.132 9.092 13.811 13.811 0 0 0 15.689 7.255 13.818 13.818 0 0 0 7.247-22.31 13.82 13.82 0 0 0-9.477-4.863l-1.16-.056Z" fill="#9EBBFF"/>
</svg>
