<svg width="814" height="1323" fill="none" xmlns="http://www.w3.org/2000/svg">
  <path opacity=".7" d="M47.2 664.836h-1.576a19.077 19.077 0 0 1-13.124-6.563 18.836 18.836 0 0 1-4.43-13.848 19 19 0 0 1 23.588-16.846 18.994 18.994 0 0 1 14.08 15.276A19.002 19.002 0 0 1 47.035 665l.164-.164Zm0-35.572a16.408 16.408 0 1 0 4.025 32.334 16.406 16.406 0 0 0 12.456-16.317 16.412 16.412 0 0 0-3.85-10.176 16.413 16.413 0 0 0-11.254-5.775l-1.378-.066Z" fill="#C6D7FF"/>
  <path d="M27.954 464.149a13.999 13.999 0 0 1-17.8 12.312 13.997 13.997 0 0 1-8.608-19.857 14.002 14.002 0 0 1 13.595-7.557 14.011 14.011 0 0 1 12.813 15.102Z" fill="#C6D7FF"/>
  <path d="M31.97 154.739a9.001 9.001 0 1 1-8.236-9.709 9.01 9.01 0 0 1 8.236 9.709Z" fill="#ECF2FF"/>
  <path opacity=".7" d="M47.157 308.87h-1.243a15.048 15.048 0 0 1-10.361-5.181 14.872 14.872 0 0 1-3.497-10.933 15.001 15.001 0 0 1 18.621-13.299 15.004 15.004 0 0 1 11.116 12.06 15.003 15.003 0 0 1-6.57 15.028A14.994 14.994 0 0 1 47.029 309l.13-.13Zm0-28.082a12.95 12.95 0 0 0-11.53 18.725 12.952 12.952 0 1 0 21.503-14.114 12.962 12.962 0 0 0-8.885-4.56l-1.088-.051Z" fill="#9EBBFF"/>
  <path d="M397.954 141.149a14.003 14.003 0 0 1-9.673 12.181 14.003 14.003 0 0 1-18.189-11.73 13.995 13.995 0 0 1 7.106-13.836 13.998 13.998 0 0 1 7.943-1.717 14.01 14.01 0 0 1 12.813 15.102Z" fill="#ECF2FF"/>
  <path opacity=".7" d="M608.262 49.784h-2.072a25.081 25.081 0 0 1-17.269-8.636 24.793 24.793 0 0 1-5.828-18.22 24.995 24.995 0 0 1 16.79-21.572 24.992 24.992 0 0 1 26.499 6.7 24.996 24.996 0 0 1 4.525 26.959A24.996 24.996 0 0 1 608.046 50l.216-.216Zm0-46.805a21.583 21.583 0 0 0-20.986 17.003 21.591 21.591 0 0 0 12.035 24.182 21.582 21.582 0 0 0 26.215-6.495 21.588 21.588 0 0 0-.643-27.004 21.578 21.578 0 0 0-14.808-7.6l-1.813-.086Z" fill="#C6D7FF"/>
  <path opacity=".7" d="M198.199 727.836h-1.575a19.073 19.073 0 0 1-13.124-6.563 18.827 18.827 0 0 1-3.604-6.48 18.823 18.823 0 0 1-.825-7.368 18.992 18.992 0 0 1 12.76-16.394 18.992 18.992 0 0 1 20.139 5.091A18.999 18.999 0 0 1 198.035 728l.164-.164Zm0-35.572a16.41 16.41 0 0 0-15.949 12.922 16.408 16.408 0 0 0 19.975 19.412 16.41 16.41 0 0 0 8.606-26.493 16.417 16.417 0 0 0-11.254-5.775l-1.378-.066Z" fill="#9EBBFF"/>
  <path d="M632.954 260.149a14.003 14.003 0 0 1-9.673 12.181 14.003 14.003 0 0 1-18.189-11.73 13.995 13.995 0 0 1 7.106-13.836 13.998 13.998 0 0 1 7.943-1.717 14.01 14.01 0 0 1 12.813 15.102Z" fill="#C6D7FF"/>
  <path opacity=".7" d="M782.231 184.81h-1.824a22.068 22.068 0 0 1-15.196-7.599 21.8 21.8 0 0 1-5.129-16.035 21.999 21.999 0 0 1 27.312-19.505 22.004 22.004 0 0 1 14.764 30.142A22.004 22.004 0 0 1 782.041 185l.19-.19Zm0-41.188a18.991 18.991 0 0 0-18.468 14.962 19 19 0 0 0 10.59 21.28 18.99 18.99 0 0 0 23.07-5.715 19 19 0 0 0-.566-23.764 18.984 18.984 0 0 0-13.031-6.687l-1.595-.076Z" fill="#9EBBFF"/>
  <path d="M502.954 666.149a14.003 14.003 0 0 1-9.673 12.181 14.003 14.003 0 0 1-18.189-11.73 13.995 13.995 0 0 1 7.106-13.836 13.998 13.998 0 0 1 7.943-1.717 14.01 14.01 0 0 1 12.813 15.102Z" fill="#C6D7FF"/>
  <path opacity=".7" d="M46.667 1259.84H45.13a18.537 18.537 0 0 1-7.052-1.97 18.71 18.71 0 0 1-5.77-4.6 18.947 18.947 0 0 1-3.521-6.48 19.242 19.242 0 0 1-.806-7.37 19.26 19.26 0 0 1 3.85-10.09 18.599 18.599 0 0 1 8.616-6.3 18.17 18.17 0 0 1 10.577-.45c3.494.9 6.655 2.83 9.098 5.54 2.442 2.71 4.06 6.1 4.657 9.73.596 3.64.145 7.38-1.298 10.76a18.883 18.883 0 0 1-6.831 8.28 18.3 18.3 0 0 1-10.142 3.11l.16-.16Zm0-35.58a15.805 15.805 0 0 0-10.008 3.66c-2.833 2.35-4.799 5.62-5.573 9.27a16.744 16.744 0 0 0 1.313 10.79c1.625 3.34 4.313 6.02 7.622 7.58a15.65 15.65 0 0 0 10.58 1.04c3.538-.9 6.672-3.01 8.884-5.97a16.686 16.686 0 0 0 3.284-10.35 16.611 16.611 0 0 0-3.761-10.17 16.081 16.081 0 0 0-4.932-4.02 15.772 15.772 0 0 0-6.063-1.76l-1.346-.07Z" fill="#C6D7FF"/>
  <path d="M27.866 1059.15a14.2 14.2 0 0 1-2.92 7.56 13.75 13.75 0 0 1-6.53 4.62 13.35 13.35 0 0 1-7.938.13 13.647 13.647 0 0 1-6.673-4.4 14.174 14.174 0 0 1-3.158-7.46c-.309-2.75.186-5.53 1.421-8a13.9 13.9 0 0 1 5.521-5.84 13.419 13.419 0 0 1 7.76-1.71c3.616.3 6.965 2.07 9.311 4.9 2.347 2.83 3.5 6.5 3.206 10.2Z" fill="#C6D7FF"/>
  <path d="M31.79 749.739a9.121 9.121 0 0 1-1.877 4.858 8.79 8.79 0 0 1-4.198 2.972 8.6 8.6 0 0 1-5.103.085 8.777 8.777 0 0 1-4.29-2.832 9.105 9.105 0 0 1-2.03-4.793 9.183 9.183 0 0 1 .914-5.14 8.906 8.906 0 0 1 3.549-3.755 8.624 8.624 0 0 1 4.989-1.104 8.738 8.738 0 0 1 5.985 3.15 9.151 9.151 0 0 1 2.06 6.559Z" fill="#ECF2FF"/>
  <path opacity=".7" d="M46.627 903.87h-1.215a14.438 14.438 0 0 1-5.567-1.553 14.77 14.77 0 0 1-4.555-3.628 14.973 14.973 0 0 1-2.78-5.115 15.205 15.205 0 0 1-.636-5.818 15.206 15.206 0 0 1 3.04-7.97 14.666 14.666 0 0 1 6.801-4.972 14.328 14.328 0 0 1 8.35-.357 14.595 14.595 0 0 1 7.183 4.376 15.147 15.147 0 0 1 3.677 7.684c.47 2.872.115 5.823-1.025 8.492a14.91 14.91 0 0 1-5.393 6.536A14.406 14.406 0 0 1 46.5 904l.127-.13Zm0-28.082a12.467 12.467 0 0 0-7.902 2.888 13 13 0 0 0-4.4 7.313 13.232 13.232 0 0 0 1.037 8.524 12.794 12.794 0 0 0 6.018 5.985 12.377 12.377 0 0 0 8.352.816 12.632 12.632 0 0 0 7.014-4.713 13.16 13.16 0 0 0 2.593-8.169 13.135 13.135 0 0 0-2.97-8.033 12.716 12.716 0 0 0-3.893-3.171 12.44 12.44 0 0 0-4.786-1.389l-1.063-.051Z" fill="#9EBBFF"/>
  <path d="M389.326 736.149a14.187 14.187 0 0 1-2.92 7.557 13.681 13.681 0 0 1-6.53 4.624 13.374 13.374 0 0 1-7.938.131 13.647 13.647 0 0 1-6.673-4.404 14.162 14.162 0 0 1-3.158-7.457 14.294 14.294 0 0 1 1.421-7.996 13.863 13.863 0 0 1 5.521-5.84 13.418 13.418 0 0 1 7.761-1.717c3.615.306 6.964 2.068 9.31 4.9a14.233 14.233 0 0 1 3.206 10.202Z" fill="#ECF2FF"/>
  <path opacity=".7" d="M594.78 644.784h-2.025a24.065 24.065 0 0 1-9.279-2.589 24.597 24.597 0 0 1-7.591-6.047 24.94 24.94 0 0 1-4.633-8.525 25.342 25.342 0 0 1-1.061-9.696 25.351 25.351 0 0 1 5.066-13.284c2.913-3.83 6.852-6.71 11.337-8.287a23.883 23.883 0 0 1 13.917-.594 24.315 24.315 0 0 1 11.97 7.293 25.238 25.238 0 0 1 6.129 12.807 25.548 25.548 0 0 1-1.708 14.153c-1.9 4.448-5.023 8.233-8.989 10.894A24.014 24.014 0 0 1 594.569 645l.211-.216Zm0-46.805a20.785 20.785 0 0 0-13.169 4.814c-3.728 3.091-6.314 7.39-7.333 12.189a22.047 22.047 0 0 0 1.728 14.206c2.137 4.396 5.675 7.915 10.029 9.976a20.636 20.636 0 0 0 13.92 1.359c4.656-1.18 8.779-3.951 11.69-7.854a21.934 21.934 0 0 0 4.321-13.615c-.114-4.909-1.86-9.632-4.949-13.389a21.175 21.175 0 0 0-6.489-5.285 20.728 20.728 0 0 0-7.977-2.315l-1.771-.086Z" fill="#C6D7FF"/>
  <path opacity=".7" d="M194.182 1322.84h-1.539a18.541 18.541 0 0 1-7.052-1.97 18.71 18.71 0 0 1-5.769-4.6 18.924 18.924 0 0 1-3.521-6.48 19.238 19.238 0 0 1-.806-7.37 19.257 19.257 0 0 1 3.85-10.09 18.6 18.6 0 0 1 8.615-6.3 18.173 18.173 0 0 1 10.578-.45 18.46 18.46 0 0 1 9.097 5.54 19.196 19.196 0 0 1 4.658 9.73c.596 3.64.145 7.38-1.299 10.76a18.878 18.878 0 0 1-6.831 8.28 18.3 18.3 0 0 1-10.141 3.11l.16-.16Zm0-35.58a15.805 15.805 0 0 0-10.009 3.66c-2.832 2.35-4.798 5.62-5.572 9.27a16.736 16.736 0 0 0 1.313 10.79c1.624 3.34 4.313 6.02 7.622 7.58a15.649 15.649 0 0 0 10.579 1.04c3.539-.9 6.673-3.01 8.885-5.97a16.693 16.693 0 0 0 3.284-10.35 16.611 16.611 0 0 0-3.762-10.17 16.083 16.083 0 0 0-4.931-4.02 15.77 15.77 0 0 0-6.063-1.76l-1.346-.07Z" fill="#9EBBFF"/>
  <path d="M618.902 855.149a14.187 14.187 0 0 1-2.92 7.557 13.683 13.683 0 0 1-6.529 4.624 13.377 13.377 0 0 1-7.939.131 13.647 13.647 0 0 1-6.673-4.404 14.17 14.17 0 0 1-3.158-7.457 14.294 14.294 0 0 1 1.421-7.996 13.863 13.863 0 0 1 5.521-5.84 13.418 13.418 0 0 1 7.761-1.717c3.615.306 6.964 2.068 9.311 4.9a14.237 14.237 0 0 1 3.205 10.202Z" fill="#C6D7FF"/>
  <path opacity=".7" d="M764.733 779.81h-1.781a21.165 21.165 0 0 1-8.166-2.279 21.627 21.627 0 0 1-6.68-5.32 21.965 21.965 0 0 1-4.077-7.503 22.286 22.286 0 0 1-.934-8.532 22.297 22.297 0 0 1 4.459-11.69 21.51 21.51 0 0 1 9.975-7.293 21.021 21.021 0 0 1 12.248-.522 21.4 21.4 0 0 1 10.534 6.418 22.208 22.208 0 0 1 5.393 11.269c.69 4.213.168 8.541-1.504 12.455a21.879 21.879 0 0 1-7.909 9.587 21.13 21.13 0 0 1-11.743 3.6l.185-.19Zm0-41.188a18.292 18.292 0 0 0-11.589 4.235c-3.28 2.721-5.556 6.504-6.452 10.727a19.4 19.4 0 0 0 1.52 12.501c1.881 3.869 4.994 6.966 8.826 8.779a18.158 18.158 0 0 0 12.249 1.197c4.098-1.039 7.726-3.478 10.288-6.912a19.296 19.296 0 0 0 3.802-11.981 19.256 19.256 0 0 0-4.355-11.783 18.634 18.634 0 0 0-5.71-4.65 18.214 18.214 0 0 0-7.02-2.037l-1.559-.076Z" fill="#9EBBFF"/>
  <path d="M491.902 1261.15a14.2 14.2 0 0 1-2.92 7.56 13.75 13.75 0 0 1-6.529 4.62c-2.576.85-5.338.89-7.939.13a13.647 13.647 0 0 1-6.673-4.4 14.18 14.18 0 0 1-3.158-7.46c-.309-2.75.186-5.53 1.421-8a13.903 13.903 0 0 1 5.521-5.84 13.42 13.42 0 0 1 7.761-1.71c3.615.3 6.964 2.07 9.311 4.9a14.23 14.23 0 0 1 3.205 10.2Z" fill="#C6D7FF"/>
</svg>
