<svg width="320" height="960" viewBox="0 0 320 960" fill="none" xmlns="http://www.w3.org/2000/svg">
<rect width="320" height="960" fill="white"/>
<g clip-path="url(#clip0_115_152)">
<path fill-rule="evenodd" clip-rule="evenodd" d="M-747 302L-633.458 315.708C-519.917 329.417 -292.833 356.833 -65.75 452.792C161.333 548.75 388.417 713.25 615.5 795.5C842.583 877.75 1069.67 877.75 1296.75 891.458C1523.83 905.167 1750.92 932.583 1864.46 946.292L1978 960H1864.46C1750.92 960 1523.83 960 1296.75 960C1069.67 960 842.583 960 615.5 960C388.417 960 161.333 960 -65.75 960C-292.833 960 -519.917 960 -633.458 960H-747V302Z" fill="#9EBBFF"/>
<path opacity="0.8" fill-rule="evenodd" clip-rule="evenodd" d="M2389 -174H2298.14C2207.28 -174 2025.56 -174 1843.83 -116.25C1662.11 -61.125 1480.39 51.75 1298.67 51.75C1116.94 51.75 935.222 -61.125 753.5 33.375C571.778 127.875 390.056 429.75 208.333 582C26.6111 734.25 -155.111 734.25 -336.833 694.875C-518.556 658.125 -700.278 582 -791.139 545.25L-882 505.875V960H-791.139C-700.278 960 -518.556 960 -336.833 960C-155.111 960 26.6111 960 208.333 960C390.056 960 571.778 960 753.5 960C935.222 960 1116.94 960 1298.67 960C1480.39 960 1662.11 960 1843.83 960C2025.56 960 2207.28 960 2298.14 960H2389V-174Z" fill="#ECF2FF"/>
<g clip-path="url(#clip1_115_152)">
<path opacity="0.7" d="M302.481 165.784H300.409C297.103 165.557 293.875 164.677 290.911 163.195C287.947 161.712 285.306 159.657 283.14 157.148C281.01 154.649 279.398 151.751 278.398 148.623C277.397 145.495 277.028 142.199 277.312 138.927C277.715 134.09 279.516 129.474 282.498 125.643C285.479 121.813 289.511 118.933 294.102 117.356C298.692 115.779 303.643 115.573 308.348 116.762C313.054 117.952 317.312 120.486 320.601 124.055C323.891 127.624 326.071 132.074 326.874 136.862C327.678 141.649 327.07 146.567 325.126 151.015C323.182 155.463 319.984 159.248 315.925 161.909C311.866 164.57 307.119 165.992 302.266 166L302.481 165.784ZM302.481 118.979C297.571 119.004 292.816 120.701 289.001 123.793C285.186 126.884 282.538 131.183 281.495 135.982C280.452 140.781 281.076 145.792 283.264 150.188C285.452 154.584 289.073 158.103 293.53 160.164C297.987 162.225 303.013 162.704 307.779 161.523C312.545 160.343 316.766 157.572 319.746 153.669C322.725 149.766 324.285 144.963 324.168 140.054C324.052 135.145 322.265 130.422 319.103 126.665C317.26 124.481 315.002 122.685 312.46 121.38C309.918 120.076 307.143 119.289 304.295 119.065L302.481 118.979Z" fill="#C6D7FF"/>
<path d="M289.201 380.669C289.006 383.034 288.115 385.288 286.639 387.146C285.163 389.005 283.169 390.384 280.91 391.109C278.65 391.835 276.226 391.874 273.945 391.222C271.663 390.57 269.625 389.256 268.09 387.447C266.555 385.637 265.591 383.413 265.319 381.055C265.048 378.698 265.482 376.313 266.566 374.202C267.65 372.091 269.336 370.349 271.41 369.196C273.484 368.043 275.854 367.53 278.219 367.724C281.391 367.986 284.329 369.497 286.388 371.924C288.447 374.351 289.459 377.496 289.201 380.669Z" fill="#C6D7FF"/>
<path d="M36.7947 168.405C36.5999 170.77 35.7083 173.024 34.2325 174.883C32.7567 176.741 30.763 178.12 28.5034 178.846C26.2439 179.571 23.8199 179.611 21.538 178.959C19.2562 178.307 17.2188 176.993 15.6836 175.183C14.1483 173.374 13.1841 171.15 12.9129 168.792C12.6416 166.434 13.0755 164.049 14.1596 161.938C15.2438 159.827 16.9295 158.085 19.0037 156.932C21.0779 155.779 23.4474 155.267 25.8127 155.46C28.9847 155.723 31.9229 157.234 33.9819 159.661C36.041 162.088 37.0526 165.233 36.7947 168.405Z" fill="#ECF2FF"/>
<path d="M228.166 245.95C228.036 247.527 227.442 249.029 226.458 250.268C225.474 251.507 224.145 252.427 222.639 252.91C221.132 253.394 219.516 253.42 217.995 252.986C216.474 252.551 215.115 251.675 214.092 250.469C213.068 249.262 212.426 247.78 212.245 246.208C212.064 244.636 212.353 243.046 213.076 241.639C213.799 240.231 214.923 239.07 216.305 238.301C217.688 237.533 219.268 237.191 220.845 237.32C222.959 237.495 224.918 238.502 226.291 240.12C227.664 241.738 228.338 243.835 228.166 245.95Z" fill="#ECF2FF"/>
<path opacity="0.7" d="M52.9593 536.001H51.633C49.5171 535.855 47.451 535.292 45.554 534.343C43.6571 533.395 41.9668 532.08 40.581 530.474C39.2177 528.874 38.186 527.02 37.5456 525.018C36.9053 523.016 36.6692 520.906 36.851 518.812C37.1085 515.716 38.2617 512.762 40.1698 510.311C42.078 507.859 44.6585 506.016 47.5964 505.007C50.5343 503.997 53.7024 503.865 56.7141 504.627C59.7257 505.388 62.4506 507.01 64.5561 509.294C66.6616 511.579 68.0566 514.426 68.5708 517.49C69.085 520.554 68.6962 523.702 67.4518 526.548C66.2074 529.395 64.1613 531.818 61.5632 533.521C58.9651 535.224 55.9275 536.134 52.8211 536.139L52.9593 536.001ZM52.9593 506.046C49.8169 506.061 46.7737 507.148 44.3319 509.126C41.8901 511.104 40.1956 513.856 39.5281 516.927C38.8606 519.999 39.2599 523.205 40.6602 526.019C42.0604 528.833 44.3779 531.085 47.2303 532.404C50.0826 533.723 53.2993 534.03 56.3496 533.274C59.3998 532.518 62.1014 530.745 64.0084 528.247C65.9153 525.749 66.9138 522.675 66.839 519.533C66.7642 516.391 65.6205 513.369 63.5968 510.964C62.4176 509.567 60.9727 508.417 59.3458 507.582C57.719 506.747 55.9426 506.244 54.1197 506.101L52.9593 506.046Z" fill="#C6D7FF"/>
<path d="M310.592 701.085C310.397 703.45 309.505 705.705 308.029 707.563C306.554 709.421 304.56 710.801 302.3 711.526C300.041 712.252 297.617 712.291 295.335 711.639C293.053 710.987 291.016 709.673 289.48 707.864C287.945 706.054 286.981 703.83 286.71 701.472C286.439 699.115 286.872 696.73 287.957 694.619C289.041 692.508 290.726 690.766 292.801 689.612C294.875 688.459 297.244 687.947 299.61 688.141C302.782 688.403 305.72 689.914 307.779 692.341C309.838 694.768 310.85 697.913 310.592 701.085Z" fill="#C6D7FF"/>
<path opacity="0.7" d="M19.1992 826.004H17.6243C15.1117 825.831 12.6582 825.162 10.4055 824.036C8.15284 822.909 6.14568 821.347 4.50002 819.44C2.88114 817.541 1.65594 815.338 0.895529 812.961C0.135122 810.584 -0.145291 808.079 0.0706056 805.592C0.37642 801.916 1.74586 798.408 4.01178 795.497C6.27771 792.585 9.34208 790.397 12.8308 789.198C16.3195 788 20.0817 787.843 23.658 788.747C27.2344 789.651 30.4702 791.577 32.9705 794.29C35.4707 797.002 37.1273 800.384 37.7379 804.022C38.3485 807.661 37.8868 811.399 36.4091 814.779C34.9314 818.159 32.5016 821.036 29.4164 823.059C26.3312 825.081 22.724 826.161 19.0352 826.168L19.1992 826.004ZM19.1992 790.432C15.4676 790.45 11.8538 791.741 8.95421 794.09C6.05459 796.439 4.04242 799.707 3.24974 803.354C2.45706 807.001 2.93123 810.809 4.59404 814.15C6.25685 817.492 9.00888 820.166 12.396 821.732C15.7832 823.298 19.6031 823.663 23.2252 822.765C26.8474 821.868 30.0555 819.762 32.32 816.796C34.5845 813.83 35.7702 810.18 35.6814 806.449C35.5925 802.718 34.2345 799.128 31.8313 796.273C30.431 794.613 28.7151 793.248 26.7833 792.257C24.8514 791.265 22.742 790.667 20.5773 790.497L19.1992 790.432Z" fill="#9EBBFF"/>
<path d="M163.711 945.765C163.5 948.327 162.534 950.769 160.935 952.783C159.337 954.796 157.177 956.29 154.729 957.076C152.281 957.862 149.655 957.904 147.183 957.198C144.711 956.492 142.504 955.069 140.841 953.108C139.178 951.148 138.133 948.738 137.839 946.184C137.545 943.63 138.015 941.046 139.19 938.759C140.364 936.473 142.19 934.585 144.437 933.336C146.685 932.087 149.251 931.532 151.814 931.741C155.25 932.026 158.433 933.663 160.664 936.292C162.895 938.921 163.991 942.328 163.711 945.765Z" fill="#C6D7FF"/>
<path opacity="0.7" d="M277.13 930.204H275.804C273.688 930.059 271.622 929.496 269.725 928.547C267.828 927.598 266.138 926.283 264.752 924.678C263.389 923.078 262.357 921.223 261.717 919.221C261.076 917.219 260.84 915.11 261.022 913.016C261.28 909.92 262.433 906.966 264.341 904.514C266.249 902.063 268.83 900.22 271.768 899.21C274.705 898.201 277.874 898.069 280.885 898.83C283.897 899.592 286.622 901.214 288.727 903.498C290.833 905.782 292.228 908.63 292.742 911.694C293.256 914.758 292.867 917.905 291.623 920.752C290.379 923.599 288.332 926.021 285.734 927.724C283.136 929.427 280.099 930.337 276.992 930.343L277.13 930.204ZM277.13 900.249C273.988 900.265 270.945 901.351 268.503 903.33C266.061 905.308 264.367 908.06 263.699 911.131C263.032 914.202 263.431 917.409 264.831 920.223C266.232 923.036 268.549 925.288 271.401 926.607C274.254 927.926 277.47 928.233 280.521 927.478C283.571 926.722 286.273 924.949 288.179 922.451C290.086 919.953 291.085 916.879 291.01 913.737C290.935 910.595 289.792 907.572 287.768 905.168C286.589 903.77 285.144 902.621 283.517 901.786C281.89 900.951 280.114 900.448 278.291 900.304L277.13 900.249Z" fill="#9EBBFF"/>
</g>
</g>
<defs>
<clipPath id="clip0_115_152">
<rect width="320" height="952" fill="white" transform="translate(0 8)"/>
</clipPath>
<clipPath id="clip1_115_152">
<rect width="320" height="844" fill="white" transform="translate(0 116)"/>
</clipPath>
</defs>
</svg>
